<?xml version="1.0" encoding="UTF-8"?> <svg xmlns="http://www.w3.org/2000/svg" width="207" height="81" viewBox="0 0 207 81" fill="none"><g clip-path="url(#clip0_756_817)"><path d="M11.4524 46.2408C11.384 46.3549 11.3079 46.4424 11.2242 46.5032C11.1482 46.5565 11.0531 46.5831 10.939 46.5831C10.8096 46.5831 10.6575 46.5184 10.4825 46.3891C10.3075 46.2598 10.0869 46.119 9.82068 45.9669C9.56203 45.8071 9.24633 45.6626 8.87357 45.5333C8.50842 45.404 8.06339 45.3393 7.53848 45.3393C7.04401 45.3393 6.60659 45.4078 6.22622 45.5447C5.85346 45.674 5.53776 45.8528 5.27911 46.081C5.02807 46.3092 4.83789 46.5793 4.70856 46.8912C4.57924 47.1955 4.51458 47.5264 4.51458 47.8839C4.51458 48.3404 4.62488 48.7207 4.8455 49.025C5.07371 49.3217 5.3704 49.5766 5.73555 49.7896C6.10831 50.0026 6.52671 50.189 6.99076 50.3487C7.46241 50.5009 7.94167 50.6606 8.42854 50.828C8.92301 50.9953 9.40227 51.1855 9.86632 51.3985C10.338 51.6039 10.7564 51.8664 11.1215 52.1859C11.4943 52.5054 11.791 52.8972 12.0116 53.3612C12.2398 53.8253 12.3539 54.3958 12.3539 55.0729C12.3539 55.7879 12.2322 56.4612 11.9888 57.0926C11.7453 57.7164 11.3878 58.2603 10.9161 58.7244C10.4521 59.1884 9.87773 59.5536 9.19307 59.8198C8.51602 60.0861 7.74388 60.2192 6.87665 60.2192C5.81162 60.2192 4.8455 60.029 3.97826 59.6486C3.11103 59.2607 2.36932 58.7396 1.75312 58.0853L2.39214 57.0355C2.453 56.9519 2.52527 56.8834 2.60895 56.8301C2.70023 56.7693 2.79913 56.7389 2.90563 56.7389C3.00453 56.7389 3.11483 56.7807 3.23655 56.8644C3.36587 56.9404 3.51041 57.0393 3.67017 57.1611C3.82992 57.2828 4.0125 57.4159 4.21789 57.5604C4.42329 57.705 4.65531 57.8381 4.91396 57.9598C5.18022 58.0815 5.48071 58.1842 5.81543 58.2679C6.15015 58.344 6.52671 58.382 6.94511 58.382C7.47002 58.382 7.93787 58.3098 8.34866 58.1652C8.75946 58.0207 9.10559 57.8191 9.38706 57.5604C9.67614 57.2942 9.89675 56.9785 10.0489 56.6133C10.201 56.2482 10.2771 55.8412 10.2771 55.3924C10.2771 54.8979 10.163 54.4947 9.93479 54.1828C9.71417 53.8633 9.42129 53.597 9.05614 53.384C8.69099 53.171 8.27259 52.9923 7.80094 52.8477C7.32928 52.6956 6.85002 52.5434 6.36315 52.3913C5.87629 52.2315 5.39703 52.0489 4.92537 51.8435C4.45372 51.6381 4.03532 51.3719 3.67017 51.0448C3.30502 50.7177 3.00833 50.3107 2.78011 49.8238C2.5595 49.3293 2.44919 48.7207 2.44919 47.9981C2.44919 47.4199 2.5595 46.8608 2.78011 46.3206C3.00833 45.7805 3.33544 45.3013 3.76145 44.8829C4.19507 44.4645 4.72378 44.1297 5.34758 43.8787C5.97898 43.6277 6.70168 43.5021 7.51566 43.5021C8.42854 43.5021 9.25774 43.6467 10.0033 43.9357C10.7564 44.2248 11.4182 44.6432 11.9888 45.191L11.4524 46.2408ZM22.022 54.8332C21.0863 54.8636 20.2876 54.9397 19.6257 55.0614C18.9715 55.1755 18.4352 55.3277 18.0168 55.5179C17.606 55.7081 17.3055 55.9325 17.1153 56.1911C16.9327 56.4498 16.8415 56.7389 16.8415 57.0584C16.8415 57.3627 16.8909 57.6251 16.9898 57.8457C17.0887 58.0663 17.2218 58.2489 17.3892 58.3934C17.5641 58.5304 17.7657 58.6331 17.994 58.7015C18.2298 58.7624 18.4808 58.7928 18.7471 58.7928C19.1046 58.7928 19.4317 58.7586 19.7284 58.6901C20.0251 58.6141 20.3028 58.5076 20.5614 58.3706C20.8277 58.2337 21.0787 58.0701 21.3146 57.8799C21.558 57.6898 21.7938 57.473 22.022 57.2295V54.8332ZM15.4607 50.1091C16.0997 49.4929 16.7882 49.0326 17.5261 48.7284C18.264 48.4241 19.0818 48.2719 19.9795 48.2719C20.6261 48.2719 21.2004 48.3784 21.7025 48.5914C22.2046 48.8044 22.6268 49.1011 22.9691 49.4815C23.3115 49.8618 23.5701 50.3221 23.7451 50.8622C23.9201 51.4023 24.0075 51.9957 24.0075 52.6423V60.0366H23.1061C22.9083 60.0366 22.7561 60.0062 22.6496 59.9453C22.5431 59.8769 22.4595 59.7475 22.3986 59.5574L22.1704 58.4619C21.8661 58.7434 21.5694 58.9944 21.2803 59.215C20.9912 59.428 20.6869 59.6106 20.3674 59.7628C20.0479 59.9073 19.7056 60.0176 19.3405 60.0937C18.9829 60.1774 18.5835 60.2192 18.1423 60.2192C17.6935 60.2192 17.2713 60.1583 16.8757 60.0366C16.4801 59.9073 16.134 59.7171 15.8373 59.4661C15.5482 59.215 15.3162 58.8993 15.1412 58.519C14.9739 58.131 14.8902 57.6746 14.8902 57.1496C14.8902 56.6932 15.0157 56.2558 15.2667 55.8374C15.5178 55.4114 15.9248 55.0348 16.4877 54.7077C17.0507 54.3806 17.7848 54.1143 18.69 53.9089C19.5953 53.6959 20.706 53.5742 22.022 53.5438V52.6423C22.022 51.7447 21.828 51.0676 21.4401 50.6112C21.0521 50.1471 20.4854 49.9151 19.7398 49.9151C19.2378 49.9151 18.8155 49.9798 18.4732 50.1091C18.1385 50.2308 17.8456 50.3715 17.5946 50.5313C17.3511 50.6834 17.1381 50.8242 16.9556 50.9535C16.7806 51.0752 16.6056 51.1361 16.4307 51.1361C16.2937 51.1361 16.1758 51.1018 16.0769 51.0334C15.978 50.9573 15.8943 50.866 15.8259 50.7595L15.4607 50.1091ZM37.674 48.4773L32.9612 60.0366H31.1355L26.4227 48.4773H28.0773C28.2447 48.4773 28.3816 48.5192 28.4881 48.6028C28.5946 48.6865 28.6669 48.7854 28.7049 48.8995L31.6376 56.3395C31.7288 56.6209 31.8087 56.8948 31.8772 57.1611C31.9456 57.4273 32.0103 57.6936 32.0712 57.9598C32.132 57.6936 32.1967 57.4273 32.2652 57.1611C32.3336 56.8948 32.4173 56.6209 32.5162 56.3395L35.483 48.8995C35.5287 48.7778 35.6048 48.6789 35.7113 48.6028C35.8178 48.5192 35.9433 48.4773 36.0878 48.4773H37.674ZM46.4691 54.8332C45.5334 54.8636 44.7347 54.9397 44.0728 55.0614C43.4186 55.1755 42.8823 55.3277 42.4639 55.5179C42.0531 55.7081 41.7526 55.9325 41.5624 56.1911C41.3798 56.4498 41.2886 56.7389 41.2886 57.0584C41.2886 57.3627 41.338 57.6251 41.4369 57.8457C41.5358 58.0663 41.6689 58.2489 41.8363 58.3934C42.0112 58.5304 42.2128 58.6331 42.4411 58.7015C42.6769 58.7624 42.9279 58.7928 43.1942 58.7928C43.5517 58.7928 43.8788 58.7586 44.1755 58.6901C44.4722 58.6141 44.7499 58.5076 45.0085 58.3706C45.2748 58.2337 45.5258 58.0701 45.7617 57.8799C46.0051 57.6898 46.2409 57.473 46.4691 57.2295V54.8332ZM39.9078 50.1091C40.5468 49.4929 41.2353 49.0326 41.9732 48.7284C42.7111 48.4241 43.5289 48.2719 44.4266 48.2719C45.0732 48.2719 45.6475 48.3784 46.1496 48.5914C46.6517 48.8044 47.0739 49.1011 47.4162 49.4815C47.7586 49.8618 48.0172 50.3221 48.1922 50.8622C48.3672 51.4023 48.4546 51.9957 48.4546 52.6423V60.0366H47.5532C47.3554 60.0366 47.2032 60.0062 47.0967 59.9453C46.9902 59.8769 46.9066 59.7475 46.8457 59.5574L46.6175 58.4619C46.3132 58.7434 46.0165 58.9944 45.7274 59.215C45.4383 59.428 45.134 59.6106 44.8145 59.7628C44.495 59.9073 44.1527 60.0176 43.7876 60.0937C43.43 60.1774 43.0306 60.2192 42.5894 60.2192C42.1406 60.2192 41.7184 60.1583 41.3228 60.0366C40.9272 59.9073 40.5811 59.7171 40.2844 59.4661C39.9953 59.215 39.7633 58.8993 39.5883 58.519C39.421 58.131 39.3373 57.6746 39.3373 57.1496C39.3373 56.6932 39.4628 56.2558 39.7138 55.8374C39.9649 55.4114 40.3719 55.0348 40.9348 54.7077C41.4978 54.3806 42.2319 54.1143 43.1371 53.9089C44.0424 53.6959 45.1531 53.5742 46.4691 53.5438V52.6423C46.4691 51.7447 46.2751 51.0676 45.8872 50.6112C45.4992 50.1471 44.9325 49.9151 44.1869 49.9151C43.6849 49.9151 43.2627 49.9798 42.9203 50.1091C42.5856 50.2308 42.2927 50.3715 42.0417 50.5313C41.7982 50.6834 41.5852 50.8242 41.4027 50.9535C41.2277 51.0752 41.0527 51.1361 40.8778 51.1361C40.7408 51.1361 40.6229 51.1018 40.524 51.0334C40.4251 50.9573 40.3414 50.866 40.273 50.7595L39.9078 50.1091ZM54.3785 50.1547C54.6296 49.8733 54.8958 49.6184 55.1773 49.3902C55.4588 49.162 55.7555 48.968 56.0674 48.8082C56.3869 48.6409 56.7216 48.5153 57.0715 48.4317C57.4291 48.3404 57.8132 48.2947 58.224 48.2947C58.8554 48.2947 59.4108 48.4012 59.89 48.6142C60.3769 48.8196 60.7801 49.1163 61.0996 49.5043C61.4267 49.8847 61.6739 50.3449 61.8413 50.885C62.0087 51.4251 62.0923 52.0223 62.0923 52.6765V60.0366H60.0498V52.6765C60.0498 51.8017 59.8482 51.1247 59.445 50.6454C59.0494 50.1585 58.4446 49.9151 57.6307 49.9151C57.0297 49.9151 56.4667 50.0596 55.9418 50.3487C55.4245 50.6378 54.9453 51.0296 54.5041 51.524V60.0366H52.4615V48.4773H53.6825C53.9715 48.4773 54.1503 48.618 54.2188 48.8995L54.3785 50.1547ZM68.0173 50.1547C68.2684 49.8733 68.5346 49.6184 68.8161 49.3902C69.0976 49.162 69.3942 48.968 69.7061 48.8082C70.0256 48.6409 70.3604 48.5153 70.7103 48.4317C71.0678 48.3404 71.452 48.2947 71.8628 48.2947C72.4942 48.2947 73.0496 48.4012 73.5288 48.6142C74.0157 48.8196 74.4189 49.1163 74.7384 49.5043C75.0655 49.8847 75.3127 50.3449 75.4801 50.885C75.6474 51.4251 75.7311 52.0223 75.7311 52.6765V60.0366H73.6886V52.6765C73.6886 51.8017 73.487 51.1247 73.0838 50.6454C72.6882 50.1585 72.0834 49.9151 71.2694 49.9151C70.6685 49.9151 70.1055 50.0596 69.5806 50.3487C69.0633 50.6378 68.5841 51.0296 68.1428 51.524V60.0366H66.1003V48.4773H67.3212C67.6103 48.4773 67.7891 48.618 67.8576 48.8995L68.0173 50.1547ZM86.0037 54.8332C85.068 54.8636 84.2692 54.9397 83.6074 55.0614C82.9531 55.1755 82.4168 55.3277 81.9984 55.5179C81.5876 55.7081 81.2871 55.9325 81.097 56.1911C80.9144 56.4498 80.8231 56.7389 80.8231 57.0584C80.8231 57.3627 80.8725 57.6251 80.9714 57.8457C81.0703 58.0663 81.2035 58.2489 81.3708 58.3934C81.5458 58.5304 81.7474 58.6331 81.9756 58.7015C82.2114 58.7624 82.4625 58.7928 82.7287 58.7928C83.0863 58.7928 83.4134 58.7586 83.7101 58.6901C84.0068 58.6141 84.2844 58.5076 84.5431 58.3706C84.8093 58.2337 85.0604 58.0701 85.2962 57.8799C85.5396 57.6898 85.7755 57.473 86.0037 57.2295V54.8332ZM79.4424 50.1091C80.0814 49.4929 80.7698 49.0326 81.5078 48.7284C82.2457 48.4241 83.0634 48.2719 83.9611 48.2719C84.6077 48.2719 85.1821 48.3784 85.6842 48.5914C86.1862 48.8044 86.6085 49.1011 86.9508 49.4815C87.2931 49.8618 87.5518 50.3221 87.7267 50.8622C87.9017 51.4023 87.9892 51.9957 87.9892 52.6423V60.0366H87.0877C86.8899 60.0366 86.7378 60.0062 86.6313 59.9453C86.5248 59.8769 86.4411 59.7475 86.3802 59.5574L86.152 58.4619C85.8477 58.7434 85.551 58.9944 85.262 59.215C84.9729 59.428 84.6686 59.6106 84.3491 59.7628C84.0296 59.9073 83.6872 60.0176 83.3221 60.0937C82.9646 60.1774 82.5652 60.2192 82.1239 60.2192C81.6751 60.2192 81.2529 60.1583 80.8573 60.0366C80.4617 59.9073 80.1156 59.7171 79.8189 59.4661C79.5298 59.215 79.2978 58.8993 79.1229 58.519C78.9555 58.131 78.8718 57.6746 78.8718 57.1496C78.8718 56.6932 78.9973 56.2558 79.2484 55.8374C79.4994 55.4114 79.9064 55.0348 80.4694 54.7077C81.0323 54.3806 81.7664 54.1143 82.6717 53.9089C83.5769 53.6959 84.6876 53.5742 86.0037 53.5438V52.6423C86.0037 51.7447 85.8097 51.0676 85.4217 50.6112C85.0337 50.1471 84.467 49.9151 83.7215 49.9151C83.2194 49.9151 82.7972 49.9798 82.4549 50.1091C82.1201 50.2308 81.8273 50.3715 81.5762 50.5313C81.3328 50.6834 81.1198 50.8242 80.9372 50.9535C80.7622 51.0752 80.5873 51.1361 80.4123 51.1361C80.2754 51.1361 80.1575 51.1018 80.0586 51.0334C79.9597 50.9573 79.876 50.866 79.8075 50.7595L79.4424 50.1091ZM94.0386 50.0178C94.5331 49.4929 95.0808 49.0745 95.6818 48.7626C96.2828 48.4507 96.975 48.2947 97.7586 48.2947C98.39 48.2947 98.9453 48.4012 99.4246 48.6142C99.9114 48.8196 100.315 49.1163 100.634 49.5043C100.961 49.8847 101.208 50.3449 101.376 50.885C101.543 51.4251 101.627 52.0223 101.627 52.6765V60.0366H99.5843V52.6765C99.5843 51.8017 99.3827 51.1247 98.9795 50.6454C98.584 50.1585 97.9792 49.9151 97.1652 49.9151C96.5642 49.9151 96.0013 50.0596 95.4764 50.3487C94.9591 50.6378 94.4798 51.0296 94.0386 51.524V60.0366H91.996V43.2283H94.0386V50.0178ZM114.341 45.5447H109.046V60.0366H106.844V45.5447H101.538V43.6847H114.341V45.5447ZM122.152 52.9961C122.152 52.5244 122.083 52.0946 121.946 51.7066C121.817 51.311 121.623 50.9725 121.364 50.691C121.113 50.402 120.805 50.1813 120.44 50.0292C120.075 49.8694 119.66 49.7896 119.196 49.7896C118.222 49.7896 117.45 50.0748 116.88 50.6454C116.317 51.2083 115.967 51.9919 115.83 52.9961H122.152ZM123.795 58.4163C123.544 58.7206 123.243 58.9868 122.893 59.215C122.543 59.4356 122.167 59.6182 121.764 59.7628C121.368 59.9073 120.957 60.0138 120.531 60.0823C120.105 60.1583 119.683 60.1964 119.265 60.1964C118.466 60.1964 117.728 60.0632 117.051 59.797C116.382 59.5231 115.8 59.1275 115.305 58.6103C114.818 58.0853 114.438 57.4387 114.164 56.6704C113.89 55.902 113.753 55.0196 113.753 54.023C113.753 53.2167 113.875 52.4635 114.118 51.7637C114.369 51.0638 114.727 50.459 115.191 49.9493C115.655 49.432 116.222 49.0288 116.891 48.7398C117.561 48.4431 118.314 48.2947 119.151 48.2947C119.843 48.2947 120.482 48.4127 121.068 48.6485C121.661 48.8767 122.171 49.2114 122.597 49.6526C123.03 50.0863 123.369 50.6264 123.612 51.273C123.856 51.912 123.977 52.6423 123.977 53.4639C123.977 53.7834 123.943 53.9964 123.875 54.1029C123.806 54.2094 123.677 54.2627 123.487 54.2627H115.762C115.784 54.993 115.883 55.6282 116.058 56.1683C116.241 56.7084 116.492 57.1611 116.811 57.5262C117.131 57.8838 117.511 58.1538 117.952 58.3364C118.394 58.5114 118.888 58.5988 119.436 58.5988C119.946 58.5988 120.383 58.5418 120.748 58.4277C121.121 58.306 121.44 58.1766 121.707 58.0397C121.973 57.9028 122.193 57.7772 122.368 57.6631C122.551 57.5414 122.707 57.4806 122.836 57.4806C123.004 57.4806 123.133 57.5452 123.224 57.6746L123.795 58.4163ZM135.43 50.5313C135.369 50.615 135.308 50.6796 135.247 50.7253C135.186 50.7709 135.103 50.7937 134.996 50.7937C134.882 50.7937 134.757 50.7481 134.62 50.6568C134.483 50.5579 134.312 50.4514 134.106 50.3373C133.908 50.2232 133.661 50.1205 133.365 50.0292C133.075 49.9303 132.718 49.8809 132.292 49.8809C131.721 49.8809 131.219 49.9836 130.786 50.189C130.352 50.3867 129.987 50.6758 129.69 51.0562C129.401 51.4366 129.181 51.8968 129.028 52.4369C128.884 52.977 128.812 53.5818 128.812 54.2513C128.812 54.9511 128.891 55.5749 129.051 56.1227C129.211 56.6628 129.435 57.1192 129.724 57.492C130.021 57.8571 130.375 58.1386 130.786 58.3364C131.204 58.5266 131.672 58.6217 132.189 58.6217C132.684 58.6217 133.091 58.5646 133.41 58.4505C133.73 58.3288 133.992 58.1957 134.198 58.0511C134.411 57.9066 134.586 57.7772 134.722 57.6631C134.867 57.5414 135.008 57.4806 135.145 57.4806C135.312 57.4806 135.441 57.5452 135.533 57.6746L136.103 58.4163C135.852 58.7282 135.567 58.9944 135.247 59.215C134.928 59.4356 134.582 59.622 134.209 59.7742C133.844 59.9187 133.46 60.0252 133.056 60.0937C132.653 60.1621 132.242 60.1964 131.824 60.1964C131.101 60.1964 130.428 60.0632 129.804 59.797C129.188 59.5307 128.652 59.1466 128.195 58.6445C127.739 58.1348 127.381 57.511 127.123 56.7731C126.864 56.0352 126.735 55.1946 126.735 54.2513C126.735 53.3916 126.853 52.5967 127.088 51.8664C127.332 51.1361 127.682 50.5085 128.138 49.9836C128.602 49.451 129.169 49.0364 129.839 48.7398C130.516 48.4431 131.292 48.2947 132.166 48.2947C132.98 48.2947 133.695 48.4279 134.312 48.6941C134.935 48.9528 135.487 49.3217 135.966 49.801L135.43 50.5313ZM141.239 50.0178C141.733 49.4929 142.281 49.0745 142.882 48.7626C143.483 48.4507 144.175 48.2947 144.959 48.2947C145.59 48.2947 146.146 48.4012 146.625 48.6142C147.112 48.8196 147.515 49.1163 147.835 49.5043C148.162 49.8847 148.409 50.3449 148.576 50.885C148.744 51.4251 148.827 52.0223 148.827 52.6765V60.0366H146.785V52.6765C146.785 51.8017 146.583 51.1247 146.18 50.6454C145.784 50.1585 145.18 49.9151 144.366 49.9151C143.765 49.9151 143.202 50.0596 142.677 50.3487C142.159 50.6378 141.68 51.0296 141.239 51.524V60.0366H139.196V43.2283H141.239V50.0178Z" fill="#905D1B"></path><path d="M131.95 17.3955C131.773 17.6998 131.595 18.0168 131.431 18.3211C131.418 18.3718 131.418 18.4225 131.393 18.4732C131.317 18.7648 131.367 19.1579 131.456 19.4748C131.545 19.7918 131.659 20.1088 131.773 20.4258C132.318 19.8806 132.863 19.3227 133.409 18.7775C133.548 18.638 133.649 18.5239 133.599 18.283C133.561 18.0421 133.637 17.8266 133.789 17.6618L131.938 17.4082L131.95 17.3955Z" fill="#4B92CE"></path><path d="M174.805 23.2659L168.579 22.4164C169.264 23.1011 169.923 23.7604 170.608 24.4324C170.785 24.6226 170.874 24.9776 171.254 24.8381C171.736 24.8127 172.129 25.1044 172.167 25.5354C172.193 25.8778 171.876 26.2581 171.495 26.3088C171.064 26.3722 170.57 26.0806 170.633 25.6749C170.722 25.117 170.354 24.9142 170.063 24.6099C169.289 23.8365 168.528 23.0757 167.755 22.3023L164.306 21.8332C165.384 22.9236 166.462 24.0013 167.552 25.079C167.818 25.3326 167.983 25.5862 167.945 25.9792C167.907 26.3088 167.933 26.6765 167.933 27.0189H167.945C167.945 27.3105 167.945 27.6021 167.933 27.9064C167.933 28.236 167.92 28.553 168.262 28.8066C168.592 29.0602 168.503 29.6053 168.186 29.8843C167.869 30.1632 167.375 30.1252 167.096 29.8082C166.804 29.4912 166.817 28.9714 167.172 28.7305C167.4 28.5657 167.425 28.3882 167.425 28.1219C167.413 27.4373 167.438 26.7526 167.413 26.0553C167.4 25.8524 167.324 25.6242 167.185 25.4847C165.942 24.2295 164.699 22.987 163.457 21.7318L142.866 18.9171C143.412 19.4749 143.982 20.0328 144.527 20.578C144.654 20.7175 144.781 20.8823 144.946 20.9837C145.06 21.0598 145.225 21.1232 145.352 21.1105C145.846 21.0852 146.252 21.4021 146.252 21.8839C146.264 22.3023 145.871 22.6954 145.44 22.6827C144.971 22.6573 144.654 22.2643 144.692 21.7571C144.705 21.6303 144.642 21.4528 144.553 21.3641C143.703 20.5019 142.854 19.6651 141.992 18.803L138.847 18.3719C138.847 18.5114 138.898 18.6635 138.987 18.7522C141.117 20.895 143.247 23.0377 145.377 25.1551C145.491 25.2565 145.681 25.3326 145.833 25.3326C146.81 25.3453 147.786 25.3453 148.749 25.3326C148.914 25.3199 149.117 25.2311 149.244 25.117C150.334 24.052 151.412 22.9616 152.502 21.8966C152.642 21.7571 152.87 21.6557 153.06 21.6557C155.393 21.6303 157.726 21.6303 160.046 21.643C160.211 21.643 160.414 21.7318 160.528 21.8459C161.695 22.987 162.861 24.1534 164.002 25.3199C164.116 25.434 164.18 25.6369 164.18 25.8017C164.192 27.7796 164.192 29.7448 164.192 31.7227C164.192 32.0017 164.192 32.2426 164.471 32.4708C164.826 32.7243 164.776 33.2695 164.446 33.5738C164.142 33.8528 163.634 33.8401 163.356 33.5231C163.051 33.1935 163.077 32.6736 163.432 32.4074C163.609 32.2806 163.66 32.1411 163.66 31.9256C163.66 29.9223 163.672 27.9444 163.66 25.9412C163.66 25.8017 163.571 25.6369 163.482 25.5354C162.43 24.4704 161.378 23.4054 160.313 22.3657C160.198 22.2516 159.996 22.1755 159.831 22.1755C158.728 22.1629 157.612 22.1629 156.496 22.1629C155.406 22.1755 154.303 22.1629 153.212 22.1755C153.048 22.1755 152.857 22.2643 152.743 22.3657C151.868 23.2279 151.019 24.0774 150.144 24.9395C150.043 25.0536 149.891 25.117 149.827 25.2438C149.459 25.9285 148.826 25.8904 148.192 25.8651C147.367 25.8397 146.543 25.8524 145.719 25.8651C145.453 25.8651 145.263 25.789 145.06 25.5988C142.917 23.4561 140.762 21.3134 138.632 19.1707C138.48 19.0185 138.34 18.9424 138.099 18.9805C137.668 19.0439 137.275 18.6762 137.25 18.2324V18.1563L135.031 17.8521C135.094 17.9535 135.12 18.0803 135.12 18.2071C135.12 18.6635 134.727 19.0439 134.27 18.9678C134.017 18.9298 133.89 19.0185 133.738 19.1833C133.142 19.7919 132.533 20.3878 131.912 20.9964C131.988 21.2119 132.077 21.4275 132.127 21.6684C132.457 23.0377 132.115 24.3817 131.253 25.3579C132.115 25.3579 132.964 25.3579 133.826 25.3453C134.245 25.3453 134.562 25.4594 134.866 25.7763C135.703 26.6639 136.578 27.5007 137.44 28.3628C137.579 28.515 137.706 28.591 137.947 28.5403C138.378 28.4643 138.809 28.8446 138.809 29.3011C138.822 29.7321 138.442 30.1125 137.998 30.0998C137.554 30.0871 137.212 29.6941 137.237 29.225C137.237 29.0728 137.186 28.87 137.085 28.7685C136.197 27.8557 135.323 26.9808 134.422 26.0933C134.296 25.9792 134.08 25.9031 133.915 25.9031C132.812 25.8904 131.722 25.8904 130.619 25.8904C130.505 25.9792 130.416 26.0933 130.289 26.1694C131.253 26.6258 131.887 27.2471 131.646 28.4009C131.608 28.591 131.798 28.8446 131.988 29.0855C132.394 29.0855 132.825 29.0728 133.231 29.0728C133.433 29.0728 133.573 29.0348 133.725 28.8446C134.017 28.4643 134.524 28.4516 134.853 28.7812C135.17 29.0855 135.17 29.58 134.853 29.897C134.524 30.2139 134.042 30.1632 133.7 29.8209C133.586 29.7068 133.408 29.6053 133.256 29.6053C133.002 29.6053 132.749 29.618 132.482 29.6053C133.116 30.2266 133.814 30.7845 134.207 31.5199C134.46 31.9763 134.752 32.3947 135.056 32.7877H137.491C137.782 32.7877 137.985 32.699 138.213 32.4961C139.24 31.4438 140.28 30.4168 141.37 29.3264C140.407 28.3755 139.469 27.4499 138.543 26.5244C137.338 25.3199 136.134 24.1281 134.942 22.9109C134.79 22.7588 134.651 22.67 134.41 22.7081C133.953 22.7841 133.548 22.4038 133.548 21.9473C133.535 21.5162 133.941 21.1359 134.397 21.1612C134.815 21.1866 135.183 21.5923 135.094 22.0361C135.056 22.2643 135.145 22.3911 135.297 22.5305L141.7 28.9334C142.08 29.3137 142.08 29.3391 141.7 29.7321C140.597 30.8352 139.494 31.9509 138.378 33.0413C138.226 33.1808 137.972 33.2822 137.757 33.2822H135.475C136.35 34.2965 137.377 35.1333 138.492 35.8814C140.09 34.2965 141.687 32.699 143.285 31.1141C143.855 30.5436 144.464 29.9604 145.111 29.3518C143.488 27.7416 141.916 26.1694 140.356 24.6226C139.747 24.0393 139.164 23.4307 138.568 22.8602C138.48 22.7714 138.302 22.7081 138.163 22.7207C137.694 22.7588 137.262 22.4418 137.25 21.96C137.224 21.567 137.63 21.1486 138.049 21.1486C138.518 21.1612 138.847 21.5543 138.835 22.0488C138.822 22.2136 138.911 22.4291 139.025 22.5432C141.168 24.6986 143.31 26.8414 145.44 28.9714C145.783 29.3137 145.783 29.3391 145.453 29.6814C143.285 31.8495 141.117 34.0176 138.974 36.1857C139.114 36.2744 139.253 36.3759 139.405 36.4773C139.976 36.8323 140.546 37.0732 141.117 37.1873C141.015 37.0478 140.939 36.883 140.939 36.7055C140.965 36.2871 141.37 35.8941 141.801 35.9701C142.068 36.0208 142.207 35.9067 142.359 35.7419C145.669 32.4327 148.99 29.1236 152.287 25.8144C152.578 25.5101 152.87 25.3706 153.314 25.3833C155.533 25.396 157.751 25.3833 159.97 25.3833C160.452 25.3833 160.49 25.4213 160.49 25.9031V31.9002C160.49 32.1284 160.515 32.2933 160.731 32.4454C161.086 32.7117 161.099 33.2442 160.807 33.5611C160.503 33.8781 159.996 33.8908 159.679 33.5865C159.374 33.2949 159.362 32.7243 159.704 32.4708C159.945 32.2933 159.97 32.1031 159.97 31.8368V25.9158C159.831 25.9031 159.729 25.8904 159.615 25.8904C157.498 25.8904 155.368 25.8778 153.263 25.9031C153.086 25.9031 152.857 25.9919 152.731 26.1187C149.371 29.4532 146.024 32.8004 142.689 36.135C142.537 36.2871 142.473 36.4266 142.511 36.6421C142.537 36.7816 142.499 36.9084 142.448 37.0352C142.676 36.9591 142.905 36.8957 143.171 36.7689C143.615 36.528 144.16 36.4773 144.73 36.4519C144.844 36.135 145.174 35.9194 145.567 35.9448C145.719 35.9448 145.909 35.8941 146.011 35.7926C148.154 33.6626 150.284 31.5199 152.401 29.3898C152.642 29.1489 152.87 29.0475 153.212 29.0602C154.239 29.0855 155.266 29.0602 156.293 29.0728C156.775 29.0728 156.813 29.1236 156.813 29.5927C156.813 30.3914 156.801 31.1648 156.813 31.9636C156.826 32.1158 156.915 32.2933 157.029 32.4074C157.371 32.7243 157.422 33.2188 157.105 33.5485C156.813 33.8781 156.293 33.8781 155.989 33.5611C155.672 33.2442 155.685 32.7117 156.052 32.4327C156.23 32.2933 156.281 32.1411 156.281 31.9383C156.268 31.1775 156.281 30.4168 156.281 29.58C155.165 29.58 154.1 29.58 153.048 29.5927C152.946 29.5927 152.832 29.6941 152.756 29.7829C150.613 31.9129 148.471 34.0556 146.353 36.1857C146.302 36.2491 146.264 36.3378 146.239 36.4392C146.987 36.4266 147.748 36.6168 148.445 36.4519C148.737 36.3759 149.041 36.2871 149.345 36.173C150.398 35.108 151.463 34.0429 152.528 32.9906C152.629 32.8765 152.807 32.8511 152.946 32.7877C153.01 32.9399 153.098 33.092 153.098 33.2442V35.4503C153.555 35.5898 153.973 35.818 154.1 36.1096C154.556 37.0859 155.127 37.3141 156.002 37.2634C155.697 36.9591 155.71 36.4266 156.04 36.135C156.382 35.8307 156.864 35.8941 157.181 36.2491C157.282 36.3505 157.46 36.4519 157.599 36.4519C159.577 36.4646 161.555 36.4646 163.546 36.4519C163.711 36.4519 163.926 36.3632 164.053 36.2364C166.17 34.1317 168.275 32.027 170.367 29.9223C170.506 29.7829 170.57 29.5927 170.671 29.4405C170.608 28.908 170.798 28.6291 171.204 28.553C171.533 28.4896 171.85 28.6544 172.015 28.9968C172.18 29.3771 172.117 29.7321 171.787 29.935C171.647 30.0364 171.445 30.0998 171.28 30.0745C171.039 30.0364 170.912 30.1125 170.747 30.2773C168.605 32.4327 166.449 34.5881 164.294 36.7182C164.154 36.8577 163.913 36.9464 163.723 36.9591C161.695 36.9718 159.679 36.9718 157.663 36.9591C157.46 36.9591 157.308 36.9844 157.168 37.1873C157.156 37.2127 157.118 37.2127 157.105 37.238C157.308 37.2507 157.523 37.2761 157.751 37.3014C158.69 37.4155 159.21 38.0368 159.171 38.937C159.159 39.33 159.108 39.7484 159.045 40.1415H163.571C163.736 40.1288 163.951 40.0527 164.066 39.9259C167.54 36.4773 171.001 33.016 174.462 29.5546C174.703 29.3264 174.817 29.0855 174.817 28.7178C174.792 26.9048 174.805 25.0917 174.805 23.2786V23.2659Z" fill="#4B92CE"></path><path d="M186.481 24.8628C186.583 24.9135 186.672 24.9896 186.748 25.1037C186.887 25.2812 187.039 25.3192 187.242 25.3066H189.74L186.469 24.8628H186.481Z" fill="#4B92CE"></path><path d="M168.541 51.7295C168.541 51.7295 168.452 51.7929 168.414 51.8309L168.693 51.7295H168.541Z" fill="#4B92CE"></path><path d="M171.483 48.2556C171.343 48.1289 171.128 48.0655 170.937 48.0528C170.468 48.0148 169.974 48.0401 169.505 48.0401H169.175C168.161 47.8499 167.438 48.243 166.779 49.0164C166.031 49.8912 165.168 50.6393 164.37 51.4634C164.141 51.6916 163.913 51.7423 163.609 51.7423C163.254 51.7423 162.886 51.755 162.531 51.755C163.076 52.6806 163.482 53.1243 163.495 53.5808L167.375 52.2115C167.21 52.1481 167.07 52.0213 166.982 51.8311C166.817 51.5141 166.905 51.083 167.197 50.8802C167.527 50.6266 167.983 50.6393 168.224 50.9562C168.452 51.2479 168.693 51.2479 169.036 51.2479C169.403 51.2352 169.771 51.2225 170.139 51.2225L173.321 50.0941C172.738 49.4728 172.116 48.8642 171.495 48.2556H171.483Z" fill="#4B92CE"></path><path d="M172.773 45.8213C172.342 45.3903 171.898 44.9465 171.442 44.5408C171.328 44.4267 171.125 44.3506 170.973 44.3379C170.009 44.3252 169.045 44.3252 168.094 44.3506C167.917 44.3506 167.714 44.4267 167.587 44.5535C166.522 45.5931 165.483 46.6328 164.443 47.6978C164.189 47.9514 163.936 48.0528 163.568 48.0528C163.01 48.0401 162.452 48.0401 161.895 48.0401C162.034 48.4332 162.148 48.8389 162.326 49.2066C162.643 49.9166 163.353 50.5759 162.541 51.2225H163.555C163.733 51.2225 163.948 51.1338 164.063 51.007C165.153 49.942 166.231 48.8516 167.321 47.7739C167.461 47.6471 167.701 47.533 167.892 47.5203C168.957 47.5076 170.034 47.5076 171.112 47.5457C171.315 47.5457 171.568 47.6471 171.721 47.7866C172.456 48.4839 173.153 49.1939 173.863 49.9039L176.057 49.1178C174.966 48.0148 173.876 46.9117 172.786 45.8213H172.773Z" fill="#4B92CE"></path><path d="M175.768 45.1246C175.565 44.9344 175.388 44.7188 175.172 44.5413C174.906 44.3258 174.805 44.0595 174.817 43.7045C174.83 41.4477 174.817 39.1909 174.83 36.934C174.83 36.7312 174.932 36.4776 175.084 36.3381C176.123 35.2604 177.176 34.2081 178.241 33.1557C178.431 32.9655 178.532 32.788 178.532 32.4837C178.507 30.7975 178.52 29.0985 178.52 27.4249H178.532C178.532 26.2077 178.532 24.9905 178.52 23.7734L175.337 23.3423C175.337 25.2061 175.337 27.0445 175.35 28.9083C175.35 29.2506 175.249 29.4915 174.995 29.7451C173.144 31.5709 171.331 33.3966 169.492 35.2351C167.781 36.9467 166.044 38.6837 164.332 40.408C164.155 40.5855 163.977 40.6489 163.711 40.6489C162.709 40.6362 161.708 40.6489 160.706 40.6489V40.6236C160.123 40.6236 159.527 40.6236 158.944 40.6362C158.893 40.9279 158.829 41.2448 158.753 41.5364C158.462 42.7156 158.36 43.3242 158.563 43.8313C160.224 43.8313 161.91 43.8313 163.571 43.8186C163.736 43.8186 163.952 43.7299 164.066 43.6031C165.169 42.5381 166.234 41.4477 167.337 40.3827C167.464 40.2432 167.705 40.1544 167.907 40.1418C168.719 40.1164 169.518 40.1418 170.342 40.1164C170.481 40.1164 170.646 40.015 170.748 39.9135C170.988 39.6473 171.267 39.5459 171.61 39.66C171.939 39.7741 172.117 40.0277 172.142 40.3827C172.13 40.725 171.977 40.9912 171.673 41.118C171.343 41.2575 171.001 41.2068 170.798 40.9279C170.646 40.687 170.456 40.6616 170.215 40.6616C169.518 40.6743 168.82 40.6489 168.11 40.6743C167.92 40.687 167.679 40.7757 167.552 40.9152C166.475 41.9675 165.41 43.0325 164.345 44.0976C164.167 44.2877 163.977 44.3638 163.698 44.3638H158.893C159.146 44.6428 159.539 44.9471 160.097 45.3781C160.782 45.8853 161.213 46.7728 161.657 47.5462C162.291 47.5462 162.925 47.5462 163.559 47.5335C163.736 47.5335 163.952 47.4321 164.091 47.3053C165.169 46.253 166.234 45.1626 167.324 44.1102C167.464 43.9708 167.692 43.8693 167.882 43.8567C168.947 43.844 170.012 43.8693 171.064 43.8567C171.369 43.844 171.572 43.9454 171.787 44.1483C173.385 45.7585 174.982 47.356 176.58 48.9536L178.773 48.1675C177.772 47.1659 176.77 46.1642 175.756 45.1499L175.768 45.1246Z" fill="#4B92CE"></path><path d="M172.317 36.1221C172.203 36.2236 172.14 36.4264 172.152 36.5786C172.165 37.0477 171.861 37.4407 171.392 37.4534C170.961 37.4788 170.542 37.073 170.568 36.6293C170.606 36.1982 171.011 35.8685 171.468 35.8939C171.62 35.9066 171.81 35.8432 171.911 35.7418C172.66 35.0064 173.395 34.2837 174.13 33.523C174.232 33.4089 174.282 33.206 174.282 33.0538C174.257 32.6101 174.599 32.1917 175.056 32.179C175.474 32.1663 175.867 32.572 175.855 32.9904C175.829 33.4342 175.449 33.7892 174.954 33.6751C174.79 33.7639 174.587 33.8399 174.46 33.9667C173.725 34.6767 173.015 35.3868 172.317 36.1221Z" fill="#4B92CE"></path><path d="M202.153 29.5166H201.684C201.05 29.7321 200.454 29.9603 199.821 30.0871C198.679 30.328 197.5 30.4041 196.359 30.645C195.408 30.8352 194.495 30.4421 194.318 29.5166C193.633 29.5166 192.961 29.5166 192.277 29.5292H190.59C190.476 29.9096 190.134 30.0744 189.766 30.011C189.538 29.9603 189.297 29.7575 189.17 29.5546C188.967 29.2503 189.145 28.7939 189.462 28.591C189.792 28.3881 190.223 28.4262 190.451 28.7685C190.641 29.0348 190.857 29.0475 191.148 29.0094C191.63 28.9714 192.112 28.9967 192.581 28.9967H194.128C193.697 27.7035 192.543 27.0442 191.541 26.2961C191.326 26.144 191.11 25.9792 190.895 25.827H187.281C187.066 25.8143 186.913 25.8397 186.761 26.0552C186.482 26.4229 185.95 26.4356 185.62 26.1186C185.316 25.8143 185.316 25.2945 185.633 24.9902C185.747 24.8888 185.886 24.8127 186.013 24.7874L182.717 24.3436V28.6671C182.717 28.7558 182.742 28.8573 182.742 29.0094C183.465 29.0094 184.149 28.9967 184.859 29.0094C185.164 29.0094 185.417 29.0094 185.658 28.7051C185.912 28.3755 186.444 28.4262 186.736 28.7432C187.04 29.0601 187.028 29.5292 186.711 29.8335C186.394 30.1252 185.874 30.1378 185.62 29.8082C185.443 29.5546 185.24 29.5292 184.961 29.5292C184.187 29.5419 183.427 29.5292 182.666 29.5419C182.349 29.5419 182.21 29.4405 182.21 29.0855C182.222 27.488 182.222 25.8777 182.21 24.2802L179.027 23.8491C179.027 26.8033 179.027 29.7828 179.015 32.737C179.015 32.9272 178.913 33.1681 178.786 33.3075C177.709 34.3979 176.618 35.4756 175.553 36.566C175.426 36.6928 175.338 36.921 175.338 37.0985C175.325 39.2793 175.325 41.4474 175.338 43.6028C175.338 43.793 175.426 44.0339 175.566 44.1733C176.808 45.4285 178.051 46.6837 179.306 47.9263L181.5 47.1402C180.574 46.2273 179.661 45.3144 178.761 44.4015C178.609 44.2621 178.52 43.9831 178.52 43.7549C178.495 42.6011 178.507 41.46 178.507 40.3063V38.6073C178.507 38.0494 178.507 37.4789 178.52 36.921C178.52 36.7182 178.621 36.4646 178.761 36.2998C179.864 35.1713 180.98 34.0556 182.121 32.9525C182.273 32.8004 182.539 32.699 182.767 32.699C183.554 32.6609 184.34 32.699 185.126 32.6863C185.265 32.6736 185.443 32.5849 185.544 32.4834C185.861 32.1157 186.368 32.0777 186.711 32.3947C187.028 32.699 187.028 33.2188 186.698 33.5231C186.356 33.8527 185.861 33.7893 185.531 33.409C185.468 33.3202 185.329 33.2315 185.227 33.2315C184.403 33.2188 183.604 33.2188 182.78 33.2315C182.666 33.2315 182.527 33.2949 182.438 33.3709C181.347 34.4486 180.27 35.5263 179.192 36.6167C179.103 36.7055 179.04 36.8703 179.04 37.0098C179.04 39.2286 179.027 41.4474 179.053 43.6662C179.053 43.8563 179.179 44.0846 179.319 44.224C180.219 45.1369 181.132 46.0498 182.045 46.95L184.226 46.1766C183.642 45.568 183.021 44.9721 182.438 44.3508C182.336 44.2621 182.311 44.0972 182.248 43.9578C182.387 43.8944 182.514 43.793 182.653 43.793C183.477 43.7803 184.302 43.793 185.126 43.7803C185.265 43.7803 185.443 43.6915 185.544 43.5774C185.874 43.2097 186.368 43.159 186.711 43.5013C187.04 43.8056 187.028 44.3001 186.711 44.6171C186.356 44.9467 185.874 44.896 185.544 44.5157C185.481 44.4396 185.379 44.3255 185.303 44.3255C184.593 44.3128 183.909 44.3128 183.199 44.3128C183.199 44.3508 183.186 44.3762 183.173 44.4015L184.758 45.9864L189.614 44.2621V40.9402C189.614 40.0781 189.475 40.0907 190.451 40.0907C191.148 40.0907 191.833 40.1034 192.53 40.0781C192.67 40.0781 192.847 39.9893 192.949 39.8879C193.291 39.5075 193.773 39.4695 194.115 39.7991C194.419 40.1034 194.419 40.6232 194.102 40.9275C193.773 41.2445 193.253 41.1938 192.936 40.8134C192.872 40.7374 192.771 40.6232 192.695 40.6232C191.846 40.6106 191.009 40.6232 190.121 40.6232V44.0846L192.809 43.1337C193.228 42.6519 193.659 42.1827 194.09 41.739C195.662 40.0907 197.399 38.5693 198.971 36.921H198.312C198.172 36.921 197.995 37.0224 197.893 37.1239C197.564 37.4916 197.057 37.5423 196.714 37.2126C196.41 36.921 196.41 36.3885 196.727 36.0969C197.082 35.7672 197.564 35.818 197.906 36.1856C197.995 36.2871 198.147 36.3885 198.274 36.3885C198.679 36.4012 199.098 36.3885 199.504 36.3885C199.529 36.3631 199.554 36.3378 199.58 36.3124C200.239 35.5771 200.632 34.6261 201.088 33.7133C200.822 33.764 200.556 33.6626 200.328 33.4217C200.226 33.3075 200.049 33.2188 199.909 33.2188C197.919 33.2061 195.941 33.2188 193.95 33.2315C193.798 33.2315 193.608 33.2949 193.506 33.3963C192.53 34.3472 191.579 35.3108 190.628 36.2617C190.603 36.2744 190.59 36.3124 190.552 36.4012C191.288 36.4012 191.96 36.4012 192.632 36.3885C192.733 36.3885 192.847 36.2998 192.923 36.211C193.253 35.8306 193.735 35.7546 194.09 36.0715C194.432 36.3758 194.432 36.8957 194.102 37.2126C193.76 37.555 193.266 37.4789 192.911 37.0858C192.834 36.9971 192.67 36.921 192.556 36.921C191.719 36.9083 190.907 36.921 190.07 36.9083C189.931 36.9083 189.792 36.8196 189.652 36.7689C189.715 36.6294 189.741 36.4519 189.855 36.3378C190.971 35.1967 192.099 34.0683 193.253 32.9399C193.392 32.8131 193.621 32.7243 193.823 32.7116C195.852 32.699 197.881 32.699 199.909 32.699C200.112 32.699 200.239 32.6482 200.366 32.4834C200.645 32.1031 201.202 32.0904 201.532 32.4327C201.596 32.4961 201.634 32.5722 201.659 32.6356C202.179 31.672 202.521 30.6577 202.141 29.5039L202.153 29.5166Z" fill="#4B92CE"></path><path d="M189.764 33.7636C189.611 33.7509 189.409 33.8143 189.307 33.9157C188.394 34.8032 187.494 35.6908 186.619 36.6036C186.378 36.8445 186.137 36.946 185.795 36.9333C184.908 36.9206 184.033 36.9333 183.145 36.9206H182.752V40.1157C183.627 40.1157 184.451 40.1157 185.288 40.103C185.377 40.103 185.465 40.0142 185.529 39.9255C185.859 39.5324 186.353 39.4817 186.695 39.8114C187.025 40.1157 187.038 40.6228 186.721 40.9271C186.378 41.2568 185.871 41.2187 185.542 40.8637C185.44 40.7496 185.25 40.6609 185.098 40.6609C184.299 40.6355 183.526 40.6482 182.727 40.6482C182.27 40.6482 182.22 40.5975 182.22 40.1537C182.207 39.0633 182.22 37.9603 182.207 36.8572C182.207 36.5529 182.321 36.4261 182.638 36.4388C183.678 36.4515 184.717 36.4515 185.757 36.4261C185.935 36.4261 186.15 36.3247 186.29 36.1979C187.202 35.3104 188.103 34.4229 188.978 33.51C189.066 33.4212 189.104 33.2437 189.092 33.1043C189.054 32.6605 189.371 32.2421 189.827 32.2041C190.245 32.166 190.689 32.5844 190.664 33.0282C190.638 33.472 190.245 33.8016 189.776 33.7889L189.764 33.7636Z" fill="#4B92CE"></path><path d="M178.962 15.0626C180.75 16.825 182.538 18.6127 184.313 20.4004L180.496 19.5382C178.848 17.89 177.187 16.2164 175.552 14.5681C175.425 14.4413 175.349 14.2131 175.336 14.0356C175.311 13.1861 175.323 12.362 175.323 11.5252V7.23975C176.11 7.44261 177.022 7.27778 177.732 7.60743C177.999 7.73422 178.252 7.81029 178.506 7.86101C178.506 9.87695 178.506 11.8929 178.493 13.9088C178.493 14.3779 178.62 14.7203 178.962 15.0499V15.0626Z" fill="#BEE1F8"></path><path d="M188.232 21.2878L185.291 20.6158C183.3 18.6252 181.322 16.6473 179.319 14.6568C179.116 14.4539 179.027 14.2384 179.027 13.9341C179.04 11.9181 179.04 9.9022 179.04 7.88626C179.623 7.87358 180.181 7.6834 180.764 7.35375C181.018 7.21428 181.398 7.23964 181.741 7.29035C181.791 7.42982 181.867 7.56929 181.994 7.6834C182.108 7.78483 182.197 7.96233 182.197 8.1018C182.21 10.0924 182.21 12.083 182.197 14.0862C182.197 14.4159 182.299 14.6568 182.527 14.8977C184.365 16.7234 186.166 18.5365 187.991 20.3622C188.042 20.6031 188.093 20.8314 188.143 21.0723C188.169 21.1483 188.194 21.2117 188.232 21.2878Z" fill="#BEE1F8"></path><path d="M182.954 9.4205C182.878 9.45853 182.814 9.48389 182.738 9.52193V8.13993C182.738 7.98779 182.84 7.7976 182.954 7.69617C182.979 7.67082 182.992 7.63278 183.017 7.60742C183.334 7.69617 183.677 7.77225 183.993 7.87368C184.247 7.94975 184.653 8.08922 184.678 8.24136C184.843 9.43318 184.932 10.6377 185.046 11.8295C184.906 11.8929 184.78 11.9563 184.64 12.007C184.095 11.1448 183.524 10.2953 182.966 9.4205H182.954Z" fill="#BEE1F8"></path><path d="M175.084 14.8724C176.58 16.3432 178.063 17.8266 179.559 19.3481L175.895 18.5113C175.857 18.4352 175.857 18.3338 175.857 18.2577C175.87 17.8266 175.527 17.3955 175.084 17.3828C174.691 17.3702 174.298 17.7379 174.285 18.1563L171.622 17.573C171.622 15.6585 171.622 13.7567 171.635 11.8422C171.635 11.7027 171.724 11.5252 171.825 11.4238C172.193 11.0815 172.256 10.5997 171.927 10.2573C171.61 9.92768 171.115 9.92768 170.811 10.2447C170.481 10.587 170.532 11.0941 170.887 11.4238C170.988 11.5125 171.077 11.6774 171.077 11.8042C171.09 13.6806 171.09 15.5317 171.09 17.4462V17.4843C171.026 17.4589 171.001 17.4589 170.988 17.4462L170.963 17.4209C168.782 15.2528 166.589 13.0594 164.433 10.8913C164.319 10.7772 164.243 10.5743 164.243 10.4222C164.218 9.66142 164.218 8.91337 164.231 8.16532C164.243 8.01317 164.345 7.82299 164.459 7.72156C164.801 7.37923 164.852 6.91011 164.535 6.56778C164.231 6.23813 163.685 6.25081 163.381 6.58046C163.077 6.92279 163.14 7.41727 163.495 7.73424C163.597 7.83567 163.698 8.00049 163.698 8.13996C163.711 8.93873 163.711 9.71214 163.698 10.5109C163.685 10.7898 163.774 10.9927 163.977 11.1956C165.929 13.1354 167.857 15.0753 169.809 17.0152L170.025 17.2307L166.183 16.3559C164.357 14.5301 162.544 12.7297 160.731 10.904C160.617 10.7898 160.528 10.6123 160.528 10.4729C160.516 8.63444 160.516 6.82136 160.516 4.99561C161.086 5.40133 161.72 5.80705 162.341 5.80705C163.559 5.80705 164.383 6.16206 165.131 7.0369C165.41 7.35387 165.828 7.59477 166.221 7.77227C166.614 7.94978 167.02 8.06389 167.426 8.19068C167.426 8.57104 167.438 8.97677 167.426 9.35713C167.426 9.61071 167.552 9.95304 167.21 10.1939C166.804 10.4602 166.779 10.9927 167.083 11.3224C167.388 11.6647 167.92 11.6647 168.237 11.335C168.554 10.9927 168.503 10.4982 168.123 10.1686C168.034 10.0925 167.933 9.96572 167.933 9.86429C167.907 9.36981 167.895 8.86266 167.895 8.36818C168.085 8.44425 168.275 8.49497 168.465 8.58372C169.378 8.96409 170.152 8.58372 169.974 7.68352C169.835 7.01154 169.632 6.33956 170.43 6.1367C170.646 6.08599 170.887 6.07331 171.128 6.04795C171.115 6.21278 171.064 6.3776 170.874 6.51707C170.481 6.80868 170.481 7.31584 170.811 7.64549C171.115 7.96246 171.648 7.94978 171.939 7.63281C172.244 7.30316 172.193 6.796 171.851 6.47903C171.736 6.3776 171.635 6.18742 171.635 6.04795V5.97188C172.053 5.94652 172.472 5.98456 172.852 6.07331C173.549 6.25081 174.145 6.75797 174.805 7.07494V14.1878C174.805 14.4667 174.881 14.6822 175.084 14.9105V14.8724Z" fill="#BEE1F8"></path><path d="M182.943 14.5677C182.829 14.4536 182.74 14.2634 182.74 14.0986C182.727 12.5898 182.74 11.0684 182.74 9.55957C182.867 9.96529 182.93 10.4091 183.133 10.7641C183.881 12.07 184.68 13.3505 185.415 14.6565C185.453 14.7833 185.504 14.91 185.605 15.0115C185.605 15.0115 185.614 15.0157 185.631 15.0242C185.884 15.506 185.922 16.1019 186.075 16.647C186.151 16.8626 186.189 17.1922 186.341 17.3063C187.228 17.8262 187.558 18.5996 187.774 19.4237C186.151 17.8135 184.528 16.1906 182.93 14.5677H182.943Z" fill="#BEE1F8"></path><path d="M138.896 8.2666C139.732 9.10341 140.557 9.91485 141.393 10.7517L138.211 10.0416C138.211 10.0416 138.312 9.94021 138.363 9.88949C138.794 9.38234 138.794 8.90054 138.883 8.2666H138.896Z" fill="#BEE1F8"></path><path d="M160.26 11.1198C161.92 12.7807 163.594 14.467 165.255 16.1279L161.426 15.2658C159.968 13.8077 158.51 12.3496 157.039 10.8662C156.938 10.7648 156.849 10.6 156.836 10.4732C156.824 9.66173 156.824 8.87564 156.836 8.06419C156.836 7.95008 156.925 7.79794 157.026 7.72186C157.394 7.39221 157.458 6.89774 157.141 6.54273C156.849 6.22576 156.316 6.22576 156.012 6.53005C155.682 6.87238 155.721 7.35418 156.088 7.69651C156.202 7.81062 156.291 8.0008 156.291 8.15295C156.316 8.92636 156.316 9.69977 156.291 10.4732C156.291 10.7648 156.38 10.955 156.57 11.1705C157.876 12.4511 159.182 13.757 160.475 15.0502L156.646 14.1881C155.733 13.2752 154.808 12.3623 153.907 11.4621C153.73 11.2719 153.578 11.1325 153.628 10.8028C153.705 10.3717 153.299 9.9787 152.855 9.9787C152.411 9.9787 152.044 10.3844 152.069 10.8028C152.094 11.2593 152.5 11.627 152.957 11.5382C153.197 11.4875 153.312 11.5889 153.451 11.7284C154.212 12.4891 154.947 13.2245 155.708 13.9852L151.866 13.1104C151.283 12.5272 150.687 11.9312 150.104 11.3353C150.002 11.2339 149.926 11.0564 149.939 10.9169C149.977 10.4225 149.66 10.0167 149.191 9.99138C148.772 9.9787 148.367 10.3591 148.379 10.7901C148.379 11.2593 148.76 11.5889 149.28 11.5636C149.406 11.5509 149.571 11.5889 149.66 11.665C150.078 12.0707 150.497 12.5018 150.915 12.9202L147.099 12.058C145.476 10.4351 143.84 8.81225 142.23 7.17667C142.116 7.06256 142.027 6.84702 142.027 6.66952V3.57588C142.332 3.25891 142.547 2.91658 142.928 2.21924C143.714 2.34603 144.462 2.44746 145.197 2.59961V6.04826C145.197 6.18772 145.083 6.36523 144.969 6.47934C144.639 6.79631 144.601 7.32882 144.918 7.63311C145.21 7.92473 145.768 7.91205 146.047 7.60775C146.338 7.29078 146.325 6.75827 145.958 6.49202C145.755 6.33987 145.73 6.17504 145.73 5.97218V2.70104C147.01 3.04337 147.885 2.15585 148.925 1.7628V2.30799C148.925 2.53621 148.899 2.67568 148.709 2.81515C148.379 3.05605 148.316 3.52516 148.544 3.79142C148.861 4.15911 149.33 4.20982 149.685 3.91821C150.028 3.62659 150.104 3.18283 149.736 2.9039C149.432 2.663 149.444 2.40942 149.444 2.07977V1.5853C150.51 1.29369 151.536 0.938678 152.627 0.748495V3.03069C152.627 3.1448 152.576 3.29694 152.487 3.3857C151.562 4.32393 150.636 5.26217 149.711 6.17504C149.635 6.25112 149.47 6.30183 149.368 6.28915C148.709 6.22576 148.329 6.66952 148.481 7.30346C148.582 7.67115 148.937 7.88669 149.343 7.81062C149.761 7.73454 150.028 7.39221 149.926 6.98649C149.876 6.73291 149.964 6.59345 150.129 6.42862C151.067 5.51574 152.006 4.60287 152.918 3.68999C153.033 3.5632 153.134 3.36034 153.134 3.18283C153.134 2.33335 153.134 1.50923 153.147 0.659743C153.59 0.609028 154.072 0.609028 154.554 0.659743C155.125 0.723137 155.721 0.659743 156.304 0.558312V2.95462C156.304 3.1448 156.202 3.36034 156.076 3.49981C155.213 4.37465 154.351 5.21145 153.489 6.08629C153.337 6.23844 153.21 6.33987 152.957 6.28915C152.525 6.21308 152.094 6.60613 152.082 7.04988C152.082 7.45561 152.475 7.86133 152.906 7.84865C153.35 7.83597 153.717 7.48097 153.654 7.01185C153.616 6.73291 153.73 6.59345 153.895 6.40326C154.808 5.50307 155.721 4.59019 156.608 3.68999C156.735 3.55052 156.824 3.33498 156.836 3.1448C156.836 2.25728 156.824 1.36976 156.836 0.46956C157.267 0.380808 157.724 0.292056 158.155 0.25402C158.738 0.177947 159.461 -0.468675 159.841 0.596349C159.866 0.659743 160.323 0.58367 160.716 0.558312C160.45 1.26833 159.537 1.8262 160.5 2.53621C160.526 2.54889 160.526 2.58693 160.526 2.63764C160.247 2.54889 159.917 2.61229 159.702 2.84051C159.41 3.15748 159.423 3.67731 159.778 3.94357C159.892 4.03232 159.955 4.12107 159.981 4.2225C159.93 4.37465 159.905 4.50144 159.943 4.53947C159.968 4.55215 159.993 4.57751 160.019 4.59019C160.019 6.58077 160.019 8.54599 160.031 10.5239C160.031 10.7141 160.133 10.955 160.26 11.0944V11.1198Z" fill="#BEE1F8"></path><path d="M141.8 7.49308C143.245 8.92579 144.691 10.3712 146.149 11.8419L142.32 10.9671L139.023 7.67059C139.264 6.66896 139.746 5.62929 140.443 4.99535C140.9 4.56427 141.242 4.27265 141.508 4.04443V6.80842C141.508 7.08736 141.597 7.27754 141.8 7.49308Z" fill="#BEE1F8"></path><path d="M171.938 78.3048C171.849 78.216 171.761 78.14 171.621 78.0132C171.621 78.6978 171.621 79.3445 171.621 79.9911C172.204 79.915 172.8 79.8516 173.396 79.7882C172.902 79.2937 172.42 78.7993 171.925 78.3048H171.938Z" fill="#23589C"></path><path d="M161.632 57.7017C161.568 57.9679 161.53 58.2342 161.505 58.5131C161.505 58.5385 161.492 58.5765 161.492 58.6145C162.202 58.6145 162.887 58.6272 163.597 58.6145C163.749 58.6145 163.927 58.5385 164.041 58.437C164.675 57.8158 165.283 57.2072 165.904 56.5732L161.632 57.7017Z" fill="#23589C"></path><path d="M166.93 56.2813C166.043 57.1562 165.168 58.0437 164.268 58.9185C164.154 59.0326 163.951 59.1087 163.786 59.1087C163 59.1214 162.226 59.1214 161.44 59.1087C161.339 59.9202 161.25 60.7823 161.618 61.2514C161.884 61.5811 162.125 61.9488 162.353 62.3038H163.558C163.723 62.3038 163.938 62.215 164.065 62.1009C166.347 59.8314 168.617 57.5492 170.886 55.2797C170.911 55.2543 170.924 55.2417 170.949 55.2163L166.943 56.2813H166.93Z" fill="#23589C"></path><path d="M190.716 51.958C190.463 51.4001 190.45 50.7154 190.399 50.0435L190.121 50.1195V54.05C190.121 54.2655 190.146 54.4177 190.349 54.5698C190.716 54.8234 190.742 55.3559 190.45 55.6729C190.146 56.0152 189.613 56.0279 189.296 55.6982C189.005 55.3813 189.005 54.8487 189.36 54.5825C189.588 54.4177 189.613 54.2402 189.613 53.9993V50.259L186.215 51.1592C186.355 51.324 186.418 51.5015 186.418 51.7297C186.406 52.5412 186.406 53.3273 186.431 54.1387C186.431 54.2655 186.507 54.4303 186.609 54.5191C186.989 54.8614 187.052 55.3559 186.723 55.6982C186.406 56.0152 185.873 56.0152 185.569 55.6855C185.265 55.3305 185.328 54.8487 185.708 54.5064C185.81 54.4303 185.886 54.2782 185.886 54.1641C185.899 53.378 185.899 52.6046 185.886 51.8312C185.886 51.679 185.797 51.4888 185.696 51.3874C185.67 51.3621 185.645 51.3367 185.62 51.3113L183.008 52.0087C182.856 52.1735 182.653 52.2749 182.45 52.2623C182.374 52.2623 182.298 52.2496 182.234 52.2242L171.622 55.0389V55.115C171.622 55.2418 171.508 55.3813 171.419 55.4827C169.061 57.8536 166.69 60.2119 164.319 62.5575C164.18 62.7096 163.926 62.7984 163.723 62.8111H162.633C163.102 63.6859 163.457 64.5988 163.711 65.537C163.825 65.499 163.939 65.4736 164.066 65.4736C164.23 65.4863 164.433 65.4229 164.535 65.3215C167.92 61.9362 171.305 58.5636 174.678 55.1784C174.868 54.9755 175.071 54.8995 175.362 54.8995C177.34 54.9121 179.305 54.8995 181.283 54.9121C181.537 54.9121 181.74 54.8868 181.917 54.6459C182.12 54.3669 182.437 54.3289 182.754 54.443C183.071 54.5698 183.223 54.8234 183.249 55.1657C183.223 55.4954 183.084 55.7616 182.78 55.9011C182.45 56.0406 182.108 55.9898 181.905 55.6982C181.74 55.4827 181.562 55.4446 181.321 55.4446C179.394 55.4573 177.48 55.4446 175.553 55.4446C175.299 55.4446 175.121 55.508 174.931 55.6855C171.584 59.0454 168.224 62.3927 164.902 65.7399C164.801 65.8286 164.75 66.0315 164.75 66.171C164.776 66.602 164.497 66.9951 164.078 67.0458C164.268 67.8699 164.421 68.694 164.585 69.5309C164.699 69.7084 164.75 69.8985 164.712 70.1014C164.877 70.8114 165.067 71.5214 165.384 72.1681C166.005 73.4106 166.715 74.6024 167.413 75.8196C167.413 75.4646 167.413 75.0969 167.4 74.7419C167.4 74.5897 167.311 74.3995 167.197 74.2981C166.855 73.9811 166.791 73.474 167.108 73.1443C167.413 72.8147 167.958 72.8274 168.25 73.157C168.554 73.4867 168.503 73.9811 168.161 74.2981C168.047 74.4122 167.945 74.6024 167.945 74.7419C167.933 75.4392 167.945 76.1112 167.945 76.7958C168.021 76.986 168.085 77.2016 168.021 77.2903C167.983 77.341 167.971 77.3791 167.945 77.4171V78.723C168.161 79.04 168.49 79.3443 168.693 79.6739C169.391 80.8404 170.202 80.4727 171.102 80.067H171.115C171.128 79.2302 171.115 78.4187 171.128 77.5819C171.128 77.4425 171.229 77.2903 171.292 77.1382C171.432 77.2142 171.609 77.2523 171.711 77.3537C172.51 78.1398 173.283 78.9132 174.082 79.712C174.931 79.6105 175.768 79.4838 176.58 79.2555C174.957 77.62 173.308 75.959 171.647 74.3361C171.254 73.9431 171.115 73.512 171.128 72.9922C171.128 72.0032 171.115 71.0016 171.115 70.0253C171.115 68.8335 171.115 67.6544 171.128 66.4752C171.14 66.3104 171.229 66.0949 171.343 65.9681C172.472 64.827 173.6 63.6859 174.754 62.5702C174.881 62.4434 175.121 62.3546 175.324 62.3419C176.123 62.3166 176.922 62.3419 177.721 62.3293C177.86 62.3293 178.038 62.2405 178.126 62.1264C178.456 61.7714 178.976 61.708 179.305 62.025C179.622 62.3293 179.635 62.8491 179.318 63.1534C178.976 63.483 178.481 63.445 178.152 63.0646C178.05 62.9632 177.898 62.8745 177.771 62.8618C176.985 62.8491 176.212 62.8491 175.438 62.8618C175.299 62.8618 175.121 62.9252 175.02 63.0266C173.955 64.0789 172.877 65.144 171.825 66.2217C171.724 66.3358 171.647 66.5386 171.635 66.7035C171.609 67.5403 171.597 68.3644 171.597 69.2139C171.597 70.4057 171.686 71.6229 171.609 72.8147C171.571 73.474 171.85 73.8163 172.281 74.222C173.892 75.8196 175.502 77.4425 177.099 79.0527C177.809 78.7864 178.405 78.3807 178.938 77.9116C177.86 76.8339 176.782 75.7435 175.717 74.6658C175.553 74.5136 175.413 74.4122 175.147 74.4629C174.728 74.539 174.323 74.146 174.31 73.7022C174.285 73.2711 174.69 72.8654 175.147 72.8908C175.565 72.9288 175.933 73.3218 175.857 73.7656C175.819 73.9938 175.895 74.1206 176.047 74.2601C177.137 75.3631 178.24 76.4662 179.331 77.5692C179.813 77.0621 180.231 76.4662 180.611 75.8576L179.42 74.6658C179.267 74.5136 179.128 74.4122 178.862 74.4629C178.431 74.5517 178 74.1206 178.012 73.6768C178.012 73.2584 178.405 72.8654 178.836 72.8908C179.267 72.9161 179.648 73.3091 179.572 73.7529C179.521 74.0065 179.635 74.146 179.8 74.3108C180.155 74.6658 180.535 75.0462 180.89 75.4138C180.992 75.2363 181.106 75.0842 181.207 74.9067C181.385 74.6024 181.575 74.2727 181.778 73.9811C181.74 73.8924 181.714 73.8036 181.702 73.7022C181.689 73.2965 182.082 72.8908 182.513 72.8908C182.577 72.8908 182.627 72.9161 182.691 72.9288C183.249 72.2188 183.54 71.2171 183.375 70.2409C182.222 70.2409 181.068 70.2535 179.914 70.2535C179.699 70.2409 179.546 70.2789 179.394 70.4818C179.115 70.8495 178.583 70.8495 178.253 70.5325C177.936 70.2155 177.962 69.683 178.317 69.3787C178.646 69.0871 179.128 69.1505 179.432 69.5055C179.508 69.5942 179.648 69.7084 179.762 69.7084H183.211C183.173 69.5942 183.16 69.4675 183.096 69.3533C183.68 69.1505 184.2 69.0237 184.669 68.8208C183.946 68.0981 183.249 67.4008 182.539 66.7035C182.463 66.6274 182.336 66.5513 182.234 66.5513C179.977 66.5386 177.721 66.5513 175.464 66.5513C175.451 66.5513 175.426 66.564 175.375 66.602C175.375 67.4262 175.362 68.263 175.375 69.1251C175.375 69.2012 175.489 69.29 175.565 69.3533C175.933 69.6703 175.984 70.1648 175.679 70.5071C175.375 70.8368 174.83 70.8368 174.526 70.5071C174.221 70.1775 174.272 69.6957 174.614 69.366C174.728 69.2519 174.817 69.0617 174.817 68.9096C174.843 68.0981 174.843 67.3121 174.83 66.5006C174.817 66.1583 174.944 66.0315 175.299 66.0315C177.619 66.0442 179.927 66.0315 182.247 66.0442C182.45 66.0442 182.703 66.1583 182.856 66.2977C183.629 67.0585 184.377 67.8192 185.138 68.5799C185.582 68.3137 186.114 67.8953 186.089 67.6037C186.063 67.2613 186.089 66.9063 186.114 66.564C184.948 65.4102 183.806 64.2565 182.64 63.1027C182.589 63.052 182.539 63.0012 182.488 62.9378C182.171 62.6209 182.171 62.5575 182.501 62.2152C183.401 61.3023 184.314 60.4021 185.214 59.5019C185.303 59.4131 185.429 59.3497 185.531 59.261C185.505 59.2229 185.48 59.1849 185.455 59.1469H175.603C175.324 59.1342 175.121 59.2229 174.906 59.4258C172.674 61.6826 170.418 63.9268 168.173 66.1836C168.047 66.3104 167.958 66.5133 167.958 66.6781C167.933 67.4388 167.933 68.1869 167.958 68.9349C167.958 69.0871 168.059 69.2519 168.161 69.3533C168.516 69.683 168.579 70.1648 168.275 70.4944C167.958 70.8368 167.438 70.8368 167.121 70.5071C166.804 70.1902 166.855 69.6957 167.21 69.366C167.311 69.2519 167.413 69.0744 167.413 68.9223C167.438 68.1108 167.413 67.3247 167.438 66.5133C167.438 66.3358 167.527 66.1076 167.654 65.9681C170.025 63.5845 172.396 61.2008 174.792 58.8299C174.906 58.7158 175.109 58.6397 175.274 58.6397C178.215 58.6397 181.157 58.6524 184.098 58.6524C184.681 58.6524 185.29 58.627 185.873 58.6397C186.038 58.6397 186.215 58.7411 186.393 58.7919C186.304 58.9567 186.254 59.1469 186.139 59.2737C185.112 60.326 184.06 61.353 183.02 62.3927C182.97 62.4561 182.906 62.5194 182.818 62.6209C183.718 63.5084 184.593 64.3579 185.467 65.2454C185.683 65.4483 185.886 65.6511 186.101 65.8793C186.127 65.144 186.038 64.4466 185.429 63.8254C185.328 63.7239 185.315 63.3436 185.417 63.2548C185.607 63.09 185.784 62.9252 185.962 62.7477C185.835 62.5828 185.898 62.4814 186.139 62.2405C187.078 61.315 188.003 60.3894 188.903 59.4765C189.018 59.3624 189.068 59.1596 189.068 59.0074C189.043 58.5636 189.373 58.1452 189.816 58.1199C190.235 58.1072 190.64 58.4876 190.64 58.9187C190.64 59.0962 190.564 59.2483 190.45 59.3878C190.78 59.1215 191.021 58.8045 191.122 58.3988C191.604 56.2688 191.68 54.1007 190.716 51.996V51.958Z" fill="#23589C"></path><path d="M196.827 62.8367C196.269 62.824 195.698 62.824 195.115 62.8367C195.064 63.0776 195.001 63.3311 194.925 63.5847C195.559 64.2187 196.18 64.8399 196.789 65.4358C196.865 65.4992 197.004 65.5373 197.118 65.5246C197.613 65.4739 198.019 65.7782 198.057 66.2346C198.095 66.691 197.74 67.0207 197.195 67.0207C196.751 67.0207 196.472 66.6657 196.484 66.1712C196.484 66.0064 196.396 65.7908 196.282 65.6767C195.774 65.1569 195.267 64.6497 194.76 64.1426C194.722 64.2567 194.697 64.3708 194.671 64.4849C194.57 64.9413 194.316 65.3978 194.316 65.8415C194.316 66.1078 194.367 66.3741 194.405 66.6403C194.431 66.691 194.431 66.7671 194.469 66.8051C195.28 67.6293 196.104 68.4534 196.916 69.2775C198.272 68.9605 198.602 67.8828 198.881 66.7925C199.033 66.1966 199.147 65.5753 199.261 64.9667C198.627 64.3328 198.006 63.6861 197.359 63.0649C197.233 62.9381 197.004 62.8493 196.814 62.8493L196.827 62.8367Z" fill="#23589C"></path><path d="M196.915 59.1342C196.497 59.1342 196.078 59.1342 195.66 59.1342C195.115 59.7175 195.039 60.5036 195.178 61.8602C195.191 62.0123 195.178 62.1518 195.178 62.304C195.799 62.304 196.421 62.304 197.042 62.304C197.232 62.304 197.448 62.3927 197.587 62.5322C198.196 63.1281 198.792 63.724 199.387 64.3199C199.527 63.6099 199.692 62.8999 199.945 62.2152C199.971 62.1391 199.996 62.0504 200.021 61.9743C199.134 61.0741 198.246 60.1739 197.333 59.2864C197.232 59.185 197.067 59.1089 196.915 59.1089V59.1342Z" fill="#23589C"></path><path d="M194.633 67.8952C194.798 68.7574 195.457 69.2518 196.256 69.3152C195.698 68.77 195.14 68.2122 194.582 67.6543C194.595 67.7304 194.62 67.8191 194.633 67.8952Z" fill="#23589C"></path><path d="M201.024 58.5129C201.125 58.3607 201.239 58.2086 201.379 58.0691C201.81 57.6253 201.442 56.3194 200.846 55.3431C200.796 55.3051 200.77 55.2544 200.757 55.2037C200.567 54.9247 200.364 54.6712 200.149 54.4937C199.769 55.191 199.426 55.8883 199.008 56.5349C199.642 57.1816 200.288 57.8282 200.935 58.4621C200.96 58.4875 200.998 58.4875 201.024 58.5129Z" fill="#23589C"></path><path d="M198.717 56.9917C198.349 57.4735 197.855 57.9553 197.322 58.1708C196.942 58.323 196.637 58.4624 196.371 58.6146C196.574 58.6146 196.789 58.6146 196.992 58.6146C197.195 58.6146 197.449 58.716 197.601 58.8555C198.463 59.6923 199.313 60.5545 200.162 61.4166C200.327 60.5925 200.403 59.743 200.758 58.9696C200.695 58.9316 200.631 58.9062 200.568 58.8428C199.959 58.2215 199.338 57.6003 198.717 56.9917Z" fill="#23589C"></path><path d="M130.783 12.0327L193.049 24.1917L130.605 12.9709L130.783 12.0327Z" fill="url(#paint0_linear_756_817)"></path><path d="M202.775 44.0081L159.375 56.4714L202.496 43.0825L202.775 44.0081Z" fill="url(#paint1_linear_756_817)"></path><path d="M194.467 26.0172C193.655 26.0172 192.996 25.3579 192.996 24.5464C192.996 23.735 193.655 23.0757 194.467 23.0757C195.278 23.0757 195.938 23.735 195.938 24.5464C195.938 25.3579 195.278 26.0172 194.467 26.0172ZM194.467 24.0012C194.175 24.0012 193.922 24.2421 193.922 24.5464C193.922 24.8507 194.163 25.0916 194.467 25.0916C194.771 25.0916 195.012 24.8507 195.012 24.5464C195.012 24.2421 194.771 24.0012 194.467 24.0012Z" fill="url(#paint2_linear_756_817)"></path><path d="M203.76 45.6693C202.378 45.6693 201.25 44.5408 201.25 43.1588C201.25 41.7769 202.378 40.6484 203.76 40.6484C205.142 40.6484 206.271 41.7769 206.271 43.1588C206.271 44.5408 205.142 45.6693 203.76 45.6693ZM203.76 42.2333C203.253 42.2333 202.848 42.639 202.848 43.1462C202.848 43.6533 203.253 44.059 203.76 44.059C204.268 44.059 204.673 43.6533 204.673 43.1462C204.673 42.639 204.268 42.2333 203.76 42.2333Z" fill="url(#paint3_linear_756_817)"></path></g><defs><linearGradient id="paint0_linear_756_817" x1="130.605" y1="18.1059" x2="193.049" y2="18.1059" gradientUnits="userSpaceOnUse"><stop stop-color="#304587"></stop><stop offset="0.1" stop-color="#405B99"></stop><stop offset="0.31" stop-color="#5F87BC"></stop><stop offset="0.5" stop-color="#76A7D5"></stop><stop offset="0.66" stop-color="#84BBE5"></stop><stop offset="0.76" stop-color="#89C2EB"></stop><stop offset="0.83" stop-color="#97CCEC"></stop><stop offset="0.92" stop-color="#A6D7ED"></stop><stop offset="1" stop-color="#ACDCEE"></stop></linearGradient><linearGradient id="paint1_linear_756_817" x1="159.375" y1="49.777" x2="202.775" y2="49.777" gradientUnits="userSpaceOnUse"><stop stop-color="#304587"></stop><stop offset="0.1" stop-color="#405B99"></stop><stop offset="0.31" stop-color="#5F87BC"></stop><stop offset="0.5" stop-color="#76A7D5"></stop><stop offset="0.66" stop-color="#84BBE5"></stop><stop offset="0.76" stop-color="#89C2EB"></stop><stop offset="0.83" stop-color="#97CCEC"></stop><stop offset="0.92" stop-color="#A6D7ED"></stop><stop offset="1" stop-color="#ACDCEE"></stop></linearGradient><linearGradient id="paint2_linear_756_817" x1="194.467" y1="43.5901" x2="194.467" y2="12.6917" gradientUnits="userSpaceOnUse"><stop stop-color="#304587"></stop><stop offset="0.1" stop-color="#405B99"></stop><stop offset="0.31" stop-color="#5F87BC"></stop><stop offset="0.5" stop-color="#76A7D5"></stop><stop offset="0.66" stop-color="#84BBE5"></stop><stop offset="0.76" stop-color="#89C2EB"></stop><stop offset="0.83" stop-color="#97CCEC"></stop><stop offset="0.92" stop-color="#A6D7ED"></stop><stop offset="1" stop-color="#ACDCEE"></stop></linearGradient><linearGradient id="paint3_linear_756_817" x1="198.093" y1="47.14" x2="204.331" y2="42.7531" gradientUnits="userSpaceOnUse"><stop stop-color="#304587"></stop><stop offset="0.1" stop-color="#405B99"></stop><stop offset="0.31" stop-color="#5F87BC"></stop><stop offset="0.5" stop-color="#76A7D5"></stop><stop offset="0.66" stop-color="#84BBE5"></stop><stop offset="0.76" stop-color="#89C2EB"></stop><stop offset="0.83" stop-color="#97CCEC"></stop><stop offset="0.92" stop-color="#A6D7ED"></stop><stop offset="1" stop-color="#ACDCEE"></stop></linearGradient><clipPath id="clip0_756_817"><rect width="206.272" height="80.46" fill="white"></rect></clipPath></defs></svg> 